0
SECTION
2
HEADER
9
$INSUNITS
70
4
9
$ACADVER
1
AC1014
9
$HANDSEED
5
FFFF
0
ENDSEC
0
SECTION
2
TABLES
0
TABLE
2
VPORT
5
8
100
AcDbSymbolTable
0
ENDTAB
0
TABLE
2
LTYPE
5
5
100
AcDbSymbolTable
0
LTYPE
5
14
100
AcDbSymbolTableRecord
100
AcDbLinetypeTableRecord
2
BYBLOCK
70
0
0
LTYPE
5
15
100
AcDbSymbolTableRecord
100
AcDbLinetypeTableRecord
2
BYLAYER
70
0
0
LTYPE
5
16
100
AcDbSymbolTableRecord
100
AcDbLinetypeTableRecord
2
DASHED
70
0
3
Dashed __ __ __ __ __ __ __ __ __ __ __ __ __ _
72
65
73
2
40
0.75
49
0.5
74
0
49
-0.25
74
0
0
ENDTAB
0
TABLE
2
LAYER
5
2
100
AcDbSymbolTable
70
2
0
LAYER
5
50
100
AcDbSymbolTableRecord
100
AcDbLayerTableRecord
2
0
70
0
62
7
6
CONTINUOUS
0
ENDTAB
0
TABLE
2
STYLE
5
3
100
AcDbSymbolTable
70
1
0
STYLE
5
11
100
AcDbSymbolTableRecord
100
AcDbTextStyleTableRecord
2
STANDARD
70
0
0
ENDTAB
0
TABLE
2
VIEW
5
6
100
AcDbSymbolTable
70
0
0
ENDTAB
0
TABLE
2
UCS
5
7
100
AcDbSymbolTable
70
0
0
ENDTAB
0
TABLE
2
APPID
5
9
100
AcDbSymbolTable
70
2
0
APPID
5
12
100
AcDbSymbolTableRecord
100
AcDbRegAppTableRecord
2
ACAD
70
0
0
ENDTAB
0
TABLE
2
DIMSTYLE
5
A
100
AcDbSymbolTable
70
1
0
ENDTAB
0
TABLE
2
BLOCK_RECORD
5
1
100
AcDbSymbolTable
70
1
0
BLOCK_RECORD
5
1F
100
AcDbSymbolTableRecord
100
AcDbBlockTableRecord
2
*MODEL_SPACE
0
BLOCK_RECORD
5
1B
100
AcDbSymbolTableRecord
100
AcDbBlockTableRecord
2
*PAPER_SPACE
0
ENDTAB
0
ENDSEC
0
SECTION
2
BLOCKS
0
BLOCK
5
20
100
AcDbEntity
100
AcDbBlockBegin
2
*MODEL_SPACE
0
ENDBLK
5
21
100
AcDbEntity
100
AcDbBlockEnd
0
BLOCK
5
1C
100
AcDbEntity
100
AcDbBlockBegin
2
*PAPER_SPACE
0
ENDBLK
5
1D
100
AcDbEntity
100
AcDbBlockEnd
0
ENDSEC
0
SECTION
2
ENTITIES
0
POINT
5
100
100
AcDbEntity
8
0
100
AcDbPoint
10
0
20
0
30
0
0
POINT
5
101
100
AcDbEntity
8
0
100
AcDbPoint
10
0
20
0
30
0
0
LINE
5
102
100
AcDbEntity
8
0
100
AcDbLine
10
50
20
100
30
0
11
-50
21
99.999999326467503
31
0
0
LINE
5
103
100
AcDbEntity
8
0
100
AcDbLine
10
-50
20
99.999999326467503
30
0
11
-50
21
-100
31
0
0
LINE
5
104
100
AcDbEntity
8
0
100
AcDbLine
10
-50
20
-100
30
0
11
50
21
-100
31
0
0
LINE
5
105
100
AcDbEntity
8
0
100
AcDbLine
10
50
20
-100
30
0
11
50
21
100
31
0
0
LINE
5
106
100
AcDbEntity
8
0
100
AcDbLine
10
50
20
100
30
0
11
-50
21
-100
31
0
6
DASHED
0
LINE
5
107
100
AcDbEntity
8
0
100
AcDbLine
10
-50
20
99.999999326467503
30
0
11
50
21
-100
31
0
6
DASHED
0
LWPOLYLINE
5
108
100
AcDbEntity
8
0
100
AcDbPolyline
90
4
70
1
43
0.0
10
50
20
100
10
100
20
100
10
100
20
-100
10
50
20
-100
0
LWPOLYLINE
5
109
100
AcDbEntity
8
0
100
AcDbPolyline
90
4
70
1
43
0.0
10
-50
20
99.999999326467503
10
-100
20
99.999999326467503
10
-100
20
-100
10
-50
20
-100
0
LWPOLYLINE
5
110
100
AcDbEntity
8
0
100
AcDbPolyline
90
4
70
1
43
0.0
10
-50
20
99.999999326467503
10
50
20
99.999999326467503
10
50
20
150
10
-50
20
150
0
LWPOLYLINE
5
111
100
AcDbEntity
8
0
100
AcDbPolyline
90
12
70
1
43
0.0
10
-50
20
-100
10
50
20
-100
10
60
20
-100
10
70
20
-100
10
70
20
-110
10
60
20
-110
10
60
20
-100
10
60
20
-110
10
50
20
-110
10
50
20
-100
10
50
20
-150
10
-50
20
-150
0
LWPOLYLINE
5
112
100
AcDbEntity
8
0
100
AcDbPolyline
90
8
70
1
43
0.0
10
50.000000000000007
20
110
10
60.000000000000007
20
110
10
70.000000000000014
20
110
10
70.000000000000014
20
100
10
60.000000000000007
20
100
10
60.000000000000007
20
110
10
60.000000000000007
20
100
10
50.000000000000007
20
100
0
LINE
5
113
100
AcDbEntity
8
0
100
AcDbLine
10
60.000000000000007
20
110
30
0
11
50.000000000000007
21
110
31
0
0
LWPOLYLINE
5
114
100
AcDbEntity
8
0
100
AcDbPolyline
90
4
70
1
43
0.0
10
50
20
120.00000193715096
10
59.999999999999964
20
120.00000193715096
10
60.000000894069672
20
130.00000193715096
10
50
20
130.00000193715096
0
LWPOLYLINE
5
115
100
AcDbEntity
8
0
100
AcDbPolyline
90
4
70
1
43
0.0
10
50
20
140.00000223517415
10
60
20
140.00000223517415
10
60
20
150.00000223517415
10
50
20
150.00000223517415
0
LWPOLYLINE
5
116
100
AcDbEntity
8
0
100
AcDbPolyline
90
4
70
1
43
0.0
10
80
20
110
10
90
20
110
10
90
20
100
10
80
20
100
0
LWPOLYLINE
5
117
100
AcDbEntity
8
0
100
AcDbPolyline
90
8
70
1
43
0.0
10
-50
20
99.999999326467503
10
-60
20
99.999999326467503
10
-60
20
110
10
-60
20
99.999999326467503
10
-70
20
99.999999326467503
10
-70
20
109.9999993264675
10
-60
20
110
10
-50
20
109.9999993264675
0
LWPOLYLINE
5
118
100
AcDbEntity
8
0
100
AcDbPolyline
90
4
70
1
43
0.0
10
-50
20
120
10
-60
20
120
10
-60
20
130
10
-50
20
130
0
LWPOLYLINE
5
119
100
AcDbEntity
8
0
100
AcDbPolyline
90
4
70
1
43
0.0
10
-50
20
140
10
-60
20
140
10
-60
20
150
10
-50
20
150
0
LWPOLYLINE
5
120
100
AcDbEntity
8
0
100
AcDbPolyline
90
4
70
1
43
0.0
10
-90.000001192092668
20
99.999999326467503
10
-80.000001192092896
20
100.00000149011612
10
-80.000001192092896
20
110.00000072026685
10
-90.000001192092668
20
109.9999993264675
0
LWPOLYLINE
5
121
100
AcDbEntity
8
0
100
AcDbPolyline
90
8
70
1
43
0.0
10
-50
20
-100
10
-60
20
-100
10
-70
20
-100
10
-70
20
-110
10
-60
20
-110
10
-60
20
-100
10
-60
20
-110
10
-50
20
-110
0
LWPOLYLINE
5
122
100
AcDbEntity
8
0
100
AcDbPolyline
90
4
70
1
43
0.0
10
-60.000000000000156
20
-150.00000000000031
10
-50.000000000000156
20
-150.00000000000031
10
-50.000000000000156
20
-140.00000000000031
10
-60.000000000000156
20
-140.00000000000031
0
LWPOLYLINE
5
123
100
AcDbEntity
8
0
100
AcDbPolyline
90
4
70
1
43
0.0
10
50
20
-120
10
60
20
-120
10
60
20
-130
10
50
20
-130
0
LWPOLYLINE
5
124
100
AcDbEntity
8
0
100
AcDbPolyline
90
4
70
1
43
0.0
10
50
20
-140
10
60
20
-140
10
60
20
-150
10
50
20
-150
0
LWPOLYLINE
5
125
100
AcDbEntity
8
0
100
AcDbPolyline
90
4
70
1
43
0.0
10
-80
20
-100
10
-90
20
-100
10
-90
20
-110
10
-80
20
-110
0
LWPOLYLINE
5
126
100
AcDbEntity
8
0
100
AcDbPolyline
90
4
70
1
43
0.0
10
80
20
-100
10
90
20
-100
10
90
20
-110
10
80
20
-110
0
LWPOLYLINE
5
127
100
AcDbEntity
8
0
100
AcDbPolyline
90
4
70
1
43
0.0
10
-50
20
-130
10
-60
20
-130
10
-60
20
-120
10
-50
20
-120
0
LINE
5
128
100
AcDbEntity
8
0
100
AcDbLine
10
-50
20
-135
30
0
11
50
21
-135
31
0
6
DASHED
0
CIRCLE
5
129
100
AcDbEntity
8
0
100
AcDbCircle
10
15
20
-135
30
0
40
6.4999999999999991
210
0
220
0
230
1
0
CIRCLE
5
130
100
AcDbEntity
8
0
100
AcDbCircle
10
5
20
-135
30
0
40
6.4999999999999991
210
0
220
0
230
1
0
CIRCLE
5
131
100
AcDbEntity
8
0
100
AcDbCircle
10
-5
20
-135
30
0
40
6.5
210
0
220
0
230
1
0
CIRCLE
5
132
100
AcDbEntity
8
0
100
AcDbCircle
10
-15
20
-135
30
0
40
6.5
210
0
220
0
230
1
0
LINE
5
133
100
AcDbEntity
8
0
100
AcDbLine
10
-50
20
135
30
0
11
50
21
135
31
0
6
DASHED
0
CIRCLE
5
134
100
AcDbEntity
8
0
100
AcDbCircle
10
-15
20
135
30
0
40
6.5
210
0
220
0
230
1
0
CIRCLE
5
135
100
AcDbEntity
8
0
100
AcDbCircle
10
-5
20
135
30
0
40
6.5
210
0
220
0
230
1
0
CIRCLE
5
136
100
AcDbEntity
8
0
100
AcDbCircle
10
5
20
135
30
0
40
6.4999999999999991
210
0
220
0
230
1
0
CIRCLE
5
137
100
AcDbEntity
8
0
100
AcDbCircle
10
15
20
135
30
0
40
6.4999999999999991
210
0
220
0
230
1
0
ENDSEC
0
SECTION
2
OBJECTS
0
DICTIONARY
5
C
100
AcDbDictionary
3
ACAD_GROUP
350
D
3
ACAD_MLINESTYLE
350
17
0
DICTIONARY
5
D
100
AcDbDictionary
0
DICTIONARY
5
1A
330
C
100
AcDbDictionary
0
DICTIONARY
5
17
100
AcDbDictionary
0
ENDSEC
0
EOF
